<?xml version="1.0" encoding="UTF-8" standalone="no"?><svg xmlns="http://www.w3.org/2000/svg" xmlns:xlink="http://www.w3.org/1999/xlink" fill="#000000" height="250.7" preserveAspectRatio="xMidYMid" version="1.1" viewBox="0.0 -0.0 256.0 250.7" width="256" zoomAndPan="magnify">
 <g>
  <path d="m128 0c-70.683 0-128 57.307-128 128 0 56.56 36.676 104.54 87.535 121.46 6.397 1.19 8.746-2.78 8.746-6.16 0-3.05-0.119-13.13-0.174-23.83-35.61 7.75-43.124-15.1-43.124-15.1-5.823-14.8-14.213-18.73-14.213-18.73-11.613-7.94 0.876-7.78 0.876-7.78 12.853 0.9 19.621 13.19 19.621 13.19 11.417 19.57 29.945 13.91 37.249 10.64 1.149-8.27 4.464-13.92 8.124-17.12-28.428-3.23-58.315-14.21-58.315-63.25 0-13.98 5-25.398 13.188-34.362-1.329-3.224-5.71-16.242 1.24-33.874 0 0 10.749-3.44 35.21 13.121 10.207-2.836 21.157-4.258 32.037-4.307 10.88 0.049 21.84 1.471 32.07 4.307 24.43-16.561 35.16-13.121 35.16-13.121 6.97 17.632 2.59 30.65 1.26 33.874 8.2 8.964 13.17 20.382 13.17 34.362 0 49.16-29.94 59.98-58.45 63.15 4.59 3.97 8.69 11.76 8.69 23.71 0 17.12-0.15 30.91-0.15 35.12 0 3.41 2.3 7.4 8.79 6.14 50.83-16.94 87.46-64.9 87.46-121.44 0-70.693-57.31-128-128-128zm-80.059 182.34c-0.282 0.64-1.283 0.83-2.194 0.39-0.929-0.42-1.45-1.28-1.149-1.92 0.275-0.66 1.278-0.84 2.204-0.4 0.931 0.42 1.461 1.29 1.139 1.93zm6.296 5.62c-0.611 0.56-1.804 0.3-2.614-0.59-0.837-0.9-0.994-2.09-0.375-2.66 0.63-0.57 1.787-0.3 2.626 0.59 0.838 0.9 1.001 2.09 0.363 2.66zm4.319 7.19c-0.784 0.54-2.066 0.03-2.859-1.11-0.784-1.14-0.784-2.5 0.017-3.05 0.795-0.55 2.058-0.05 2.861 1.08 0.782 1.15 0.782 2.52-0.019 3.08zm7.305 8.32c-0.701 0.77-2.196 0.57-3.289-0.49-1.12-1.03-1.431-2.5-0.727-3.27 0.71-0.77 2.213-0.56 3.315 0.49 1.11 1.03 1.45 2.51 0.701 3.27zm9.442 2.81c-0.31 1-1.749 1.46-3.199 1.03-1.448-0.43-2.395-1.61-2.103-2.62 0.301-1.01 1.747-1.49 3.207-1.03 1.446 0.44 2.396 1.6 2.095 2.62zm10.744 1.19c0.036 1.06-1.193 1.93-2.715 1.95-1.531 0.04-2.769-0.82-2.786-1.86 0-1.06 1.202-1.93 2.733-1.95 1.522-0.03 2.768 0.81 2.768 1.86zm10.555-0.4c0.182 1.03-0.875 2.09-2.387 2.37-1.485 0.27-2.861-0.37-3.05-1.39-0.184-1.05 0.893-2.11 2.376-2.38 1.514-0.27 2.868 0.35 3.061 1.4z" fill="#ffffff"/>
 </g>
</svg>