<?xml version="1.0" encoding="UTF-8" standalone="no"?><svg xmlns="http://www.w3.org/2000/svg" xmlns:xlink="http://www.w3.org/1999/xlink" fill="#000000" height="32" preserveAspectRatio="xMidYMid meet" version="1" viewBox="-0.0 0.0 32.0 32.0" width="32" zoomAndPan="magnify">
 <g id="change1_1"><path d="m29.63 0.001h-27.268c-1.302 0-2.362 1.033-2.362 2.305v27.384c0 1.275 1.06 2.31 2.362 2.31h27.27c1.305 0 2.368-1.035 2.368-2.31v-27.384c0-1.272-1.063-2.305-2.37-2.305z" fill="#ffffff"/></g>
 <g id="change2_1"><path d="m4.745 11.997h4.755v15.27h-4.755zm2.374-7.6c1.517 0 2.75 1.233 2.75 2.75s-1.233 2.753-2.749 2.753a2.76 2.76 0 0 1 -2.754 -2.753 2.75 2.75 0 0 1 2.753 -2.75m5.35 7.6h4.552v2.087h0.063c0.634-1.2 2.182-2.466 4.5-2.466 4.806 0 5.693 3.163 5.693 7.274v8.376h-4.743v-7.428c0-1.77-0.032-4.05-2.466-4.05-2.47 0-2.85 1.93-2.85 3.92v7.554h-4.742v-15.27z" fill="#1fc667"/></g>
</svg>